# xmcd
#
# Track frame offsets:
#	150
#	19550
#	32610
#	52652
#	72667
#	85132
#	97837
#	113162
#	133092
#	152512
#	165305
#	177472
#
# Disc length: 2608 seconds
#
# Revision: 1
# Processed by: cddbd v1.5.2PL0 Copyright (c) Steve Scherf et al.
# Submitted via: audiograbber 1.83.01
#
DISCID=890a2e0c
DTITLE=Lisa Johnson - Candy Kisses Muddy Hugs
DYEAR=1998
DGENRE=Christian Country
TTITLE0=How Long?
TTITLE1=Your Hands
TTITLE2=Strong Love
TTITLE3=Ode to the Gecko
TTITLE4=Greater Still
TTITLE5=Into My Heart
TTITLE6=That's Not Me
TTITLE7=Look Into His Eyes
TTITLE8=Melody
TTITLE9=Pooped On, Pooped Out Blues
TTITLE10=Daughter of Mine
TTITLE11=My Three Sons
EXTD=
EXTT0=
EXTT1=
EXTT2=
EXTT3=
EXTT4=
EXTT5=
EXTT6=
EXTT7=
EXTT8=
EXTT9=
EXTT10=
EXTT11=
PLAYORDER=
